<?xml version="1.0" standalone="no"?>
<!DOCTYPE svg PUBLIC "-//W3C//DTD SVG 20010904//EN"
 "http://www.w3.org/TR/2001/REC-SVG-20010904/DTD/svg10.dtd">
<svg version="1.0" xmlns="http://www.w3.org/2000/svg"
 width="260.000000pt" height="260.000000pt" viewBox="0 0 260.000000 260.000000"
 preserveAspectRatio="xMidYMid meet">
<metadata>
Created by potrace 1.14, written by Peter Selinger 2001-2017
</metadata>
<g transform="translate(0.000000,260.000000) scale(0.100000,-0.100000)"
fill="#000000" stroke="none">
<path d="M0 1300 l0 -1300 1300 0 1300 0 0 1300 0 1300 -1300 0 -1300 0 0
-1300z m1477 504 c245 -62 453 -267 518 -509 46 -172 15 -443 -51 -453 -12 -2
-48 13 -80 32 -66 40 -117 46 -177 21 -53 -22 -100 -19 -124 7 -11 13 -61 91
-113 173 -122 197 -136 215 -164 215 -20 0 -38 -28 -126 -192 -57 -106 -110
-201 -118 -210 -20 -24 -55 -23 -77 2 -31 35 -60 25 -105 -33 -46 -62 -77 -82
-129 -82 -63 0 -87 25 -117 117 -24 72 -28 100 -28 208 -1 143 14 213 70 326
148 301 497 461 821 378z"/>
</g>
</svg>
